# xmcd CD database file
#
# Track frame offsets:
#	183
#	15940
#	32933
#	47653
#	61785
#	79900
#	90650
#	107140
#	120143
#	135948
#	156560
#	173538
#	186805
#	199653
#	213865
#
# Disc length: 3073 seconds
#
# Revision: 0
# Processed by: cddbd v1.4PL0 Copyright (c) Steve Scherf et al.
# Submitted via: CDex 1.50
#
DISCID=b50bff0f
DTITLE=Moody Blues - Blue
DYEAR=1900
DGENRE=Blues
TTITLE0=Voices In The Sky
TTITLE1=Out And In
TTITLE2=Candle Of Life
TTITLE3=So Deep Within You
TTITLE4=For My Lady
TTITLE5=Cities
TTITLE6=A Simple Game
TTITLE7=Fly Me High
TTITLE8=Steppin' In A Slide Zone
TTITLE9=After You Came
TTITLE10=I'll Be Level With You
TTITLE11=Leave This Man Alone
TTITLE12=Dr. Livingstone, I Presume
TTITLE13=Gimme A Little Somethin'
TTITLE14=Please Think About It
EXTD=
EXTT0=
EXTT1=
EXTT2=
EXTT3=
EXTT4=
EXTT5=
EXTT6=
EXTT7=
EXTT8=
EXTT9=
EXTT10=
EXTT11=
EXTT12=
EXTT13=
EXTT14=
PLAYORDER=
